<?xml version="1.0" encoding="UTF-8" standalone="no"?>
<!-- Created with Inkscape (http://www.inkscape.org/) -->

<svg
   version="1.1"
   id="svg1"
   width="682.66669"
   height="682.66669"
   viewBox="0 0 682.66669 682.66669"
   xmlns="http://www.w3.org/2000/svg"
   xmlns:svg="http://www.w3.org/2000/svg">
  <defs
     id="defs1" />
  <g
     id="g1"
     style="display:inline">
    <g
       id="g2">
      <path
         style="fill:#d0d0d0;fill-opacity:1"
         d="m 242.33334,660.45031 c 0.91667,-0.36988 2.41667,-0.36988 3.33333,0 0.91667,0.36989 0.16667,0.67252 -1.66666,0.67252 -1.83334,0 -2.58334,-0.30263 -1.66667,-0.67252 z m 62.66667,0 c 0.91667,-0.36988 2.41667,-0.36988 3.33333,0 0.91667,0.36989 0.16667,0.67252 -1.66666,0.67252 -1.83334,0 -2.58334,-0.30263 -1.66667,-0.67252 z m 149.49848,-60.13602 c 2.03831,-3.80863 5.50152,-22.30174 5.50152,-29.37744 0,-6.36758 0.17722,-6.65111 8.16083,-13.05622 4.48845,-3.601 9.81575,-7.91811 11.83844,-9.59357 l 3.67762,-3.04629 0.9526,11.43592 c 0.52394,6.28976 0.54285,14.96645 0.042,19.28155 -0.85168,7.33809 -1.26942,8.08385 -6.45772,11.52825 -13.31402,8.83891 -24.94856,15.13212 -23.71532,12.8278 z M 110.77193,563.22224 c 0.064,-1.55326 0.37992,-1.8692 0.80556,-0.80556 0.38516,0.9625 0.33779,2.1125 -0.10526,2.55556 -0.44306,0.44305 -0.75819,-0.34445 -0.7003,-1.75 z m 415.89475,-18.3923 c 0,-0.27687 1.05,-1.32687 2.33334,-2.33333 2.11474,-1.6585 2.1619,-1.61133 0.5034,0.50341 -1.74182,2.22099 -2.83674,2.9273 -2.83674,1.82992 z m -42.66667,-1.24714 c 0,-0.22946 1.95,-2.17946 4.33334,-4.33333 l 4.33333,-3.91612 -3.91612,4.33333 c -3.65037,4.03928 -4.75055,4.94621 -4.75055,3.91612 z M 306.77194,492.55557 c 0.064,-1.55326 0.37992,-1.8692 0.80555,-0.80556 0.93432,2.33477 -0.94593,4.21326 -0.80555,0.80556 z m -21.33334,-5.33333 c 0.064,-1.55326 0.37993,-1.8692 0.80556,-0.80556 0.9343,2.33478 -0.94591,4.21325 -0.80556,0.80556 z m -21.22807,-19.22223 c 0,-1.83333 0.30264,-2.58333 0.67252,-1.66666 0.36988,0.91666 0.36988,2.41666 0,3.33333 -0.36988,0.91667 -0.67252,0.16667 -0.67252,-1.66667 z m 41.45906,-22 c 0.0148,-2.93333 0.28784,-3.97633 0.60677,-2.31778 0.63248,3.28925 -0.19402,9.10682 -0.60677,2.31778 z m 85.10235,-32.11111 c 0.064,-1.55326 0.37992,-1.8692 0.80556,-0.80555 0.38516,0.9625 0.33779,2.1125 -0.10527,2.55555 -0.44305,0.44306 -0.75818,-0.34444 -0.70029,-1.75 z m 200.23099,-62.55556 c 0.0148,-2.93333 0.28784,-3.97633 0.60677,-2.31778 0.31892,1.65855 0.30681,4.05855 -0.0269,5.33333 -0.33372,1.27478 -0.59466,-0.0822 -0.57986,-3.01555 z M 399.5064,268.00173 C 352.08166,243.87262 317.7043,209.11323 302.84348,150 c -3.88634,-15.45902 -6.84347,-37.2825 -6.84347,-50.504447 l -2.05128,-18.675037 h 14.46767 c 13.82005,0 15.93222,-2.432508 18.17974,-4.384616 1.47753,-1.283333 8.28525,-7.007692 11.36757,-13.974359 10.10293,-22.834675 14.71003,-35.846528 22.06854,-39.78468 3.39404,-1.816439 12.35914,-12.553348 20.53011,-4.973976 8.64913,8.022912 23.49327,34.527263 17.37543,51.420796 l -4.09166,30.098038 5.40426,12.209661 c 8.85295,20.00117 31.30213,55.84337 36.72654,72.20965 10.40039,31.37956 8.0351,63.78298 -10.15666,84.2627 l -8.25065,9.28833 z m -32.26069,-62.64861 c 8.28166,-4.04367 11.96908,-10.51004 12.48837,-21.90001 0.35613,-7.81111 -0.10444,-10.49343 -2.65154,-15.44234 -8.26127,-16.05135 -27.31883,-16.07869 -35.41586,-0.0508 -7.03279,13.92123 -1.67847,32.49111 11,38.15025 5.51172,2.4602 8.2848,2.31619 14.57903,-0.75708 z M 129.5092,272.25051 c -6.53272,-8.24859 -12.58415,-14.84608 -16.13247,-25.48128 -6.69963,-20.08045 -6.88744,-46.31401 2.24416,-72.61027 4.98745,-14.36238 19.55273,-44.02396 30.99395,-61.49229 l 10.07645,-15.384616 0.0525,-19.371452 c 0.0849,-31.331896 3.23094,-61.294644 18.77242,-62.731114 15.72096,-1.453059 27.15143,22.461782 38.65074,48.02038 3.20553,7.12469 3.0163,21.183468 4.59373,22.466801 2.3965,1.949696 7.93366,-10.667925 20.85882,-4.846153 h 15.93948 l -0.5146,18.179487 C 252.75062,180.03254 215.08113,241.2437 156.49104,265.9133 c -17.37912,7.31755 -22.07899,12.52784 -26.98184,6.33721 z m 66.76535,-65.63771 c 13.69054,-3.80232 19.77921,-25.33135 11.38696,-40.26334 -5.54767,-9.87076 -17.76013,-13.39015 -26.88825,-7.74867 -16.68412,10.31136 -13.06475,43.84237 5.22675,48.4222 4.26764,1.06853 5.06487,1.03671 10.27454,-0.41019 z"
         id="path9" />
      <path
         style="fill-opacity:1.0;fill:#333333"
         d="m 208.53477,680.12611 c -5.77,-2.62042 -9.68069,-7.24218 -15.2588,-18.03327 l -3.39814,-6.57385 -12.38197,-2.36172 c -47.99515,-9.15456 -76.15554,-30.47265 -84.308964,-63.82392 -5.714861,-23.37643 1.18611,-70.21796 23.670364,-160.66667 8.46515,-34.05323 10.44008,-40.44601 13.2841,-43 1.83738,-1.65 4.80722,-3 6.59966,-3 4.29096,0 8.59232,4.44161 8.59232,8.87248 0,1.94653 -4.16175,20.09653 -9.24832,40.33333 -22.05211,87.7337 -28.94992,132.44852 -23.62149,153.1256 3.01573,11.70265 6.43227,17.76735 14.46184,25.67126 8.76703,8.62984 23.80454,16.02759 42.15971,20.74061 7.56347,1.94206 13.94682,3.3193 14.18523,3.06053 0.23841,-0.25876 -0.98485,-7.16418 -2.71836,-15.34537 -8.5078,-40.15204 -17.38519,-123.77441 -20.05501,-188.91223 l -0.88984,-21.71027 3.7096,-2.91797 c 4.59167,-3.61181 7.36027,-3.67579 11.68987,-0.27013 3.1278,2.46033 3.42896,3.71146 4.25261,17.66667 6.36386,107.82454 14.46436,175.79404 25.48196,213.81347 3.32442,11.47186 8.75039,23.65503 11.21298,25.177 2.06332,1.2752 6.4295,-6.85819 10.00544,-18.63831 9.43508,-31.08164 15.13337,-83.5475 18.10158,-166.66667 1.6651,-46.62811 1.82049,-47.33333 10.42962,-47.33333 8.72099,0 9.50979,2.0003 9.50559,24.10498 -0.01,51.60263 -5.99587,129.80492 -12.7496,166.56169 -1.14532,6.23333 -2.42338,13.58333 -2.84013,16.33333 l -0.75773,5 h 27.66433 27.66433 l -0.78594,-3.66666 c -8.1756,-38.14203 -13.0498,-88.25845 -15.58618,-160.25671 -1.02378,-29.06125 -0.98957,-40.20641 0.13173,-42.91346 2.97982,-7.19392 14.31655,-7.25841 17.02011,-0.0968 0.74753,1.98017 1.716,18.30031 2.15215,36.26698 1.29197,53.22065 4.82011,100.36496 10.10197,134.98613 4.21306,27.61551 10.79163,50.31067 15.93178,54.96244 2.46896,2.23437 2.69098,2.03983 6.67187,-5.84628 13.70476,-27.14897 27.20674,-122.81032 31.4424,-222.76896 0.45057,-10.63333 1.42345,-20.93186 2.16195,-22.88562 1.73333,-4.58568 7.39838,-7.03397 12.12105,-5.23841 6.34016,2.41052 6.70551,4.75492 5.07998,32.5977 -4.58761,78.57886 -11.16066,139.48958 -19.50034,180.70473 -1.83759,9.08145 -3.07556,16.77723 -2.75106,17.10173 1.3345,1.3345 27.60579,-6.70471 37.8134,-11.57117 25.71792,-12.26099 36.53983,-31.98876 34.373,-62.66018 -2.73796,-38.75563 -23.25118,-127.70021 -53.49142,-231.93675 -7.43132,-25.61538 -8.45734,-30.40342 -7.1773,-33.49371 1.42558,-3.44165 6.14368,-6.61832 9.82975,-6.61832 4.7617,0 18.40038,-8.70069 25.92957,-16.54156 14.84499,-15.45952 22.60605,-37.31239 21.16285,-59.58842 -1.37512,-21.2251 -16.29496,-58.73768 -38.015,-95.58013 l -9.2105,-15.62323 -0.85693,-24.000001 c -0.47132,-13.2 -1.70952,-28.661308 -2.75157,-34.358462 -2.18068,-11.922334 -6.72827,-22.308206 -9.76795,-22.308206 -7.09744,0 -20.45146,18.158966 -33.77043,45.921474 -5.03922,10.503935 -10.12801,19.468668 -11.3084,19.921629 -1.1804,0.452961 -26.30412,0.823565 -55.83048,0.823565 -49.47636,0 -53.84122,-0.182894 -55.68628,-2.333333 -1.10108,-1.283334 -5.42826,-9.533334 -9.61594,-18.333334 -9.85773,-20.715075 -17.94052,-33.591213 -25.40612,-40.472763 -6.8563,-6.319915 -9.16743,-6.789436 -12.01649,-2.441228 -4.97544,7.593483 -7.59632,23.485142 -8.28689,50.247325 l -0.67089,26 -7.24107,12.286934 c -18.48895,31.3728 -32.45238,61.95108 -37.91767,83.03532 -10.64366,41.06154 9.00515,82.04699 44.74374,93.33096 7.0811,2.23576 10.00001,4.98287 10.00001,9.41144 0,6.13303 -16.10305,60.39573 -18.7427,63.15758 -5.32745,5.57406 -15.92397,1.33411 -15.92397,-6.37162 0,-1.56968 2.98905,-13.31416 6.64234,-26.09883 3.65329,-12.78467 6.50329,-23.28392 6.33334,-23.33165 -0.16996,-0.0477 -3.90623,-1.88679 -8.30282,-4.08679 -10.01732,-5.01255 -24.42026,-18.47989 -31.5436,-29.49456 l -5.44205,-8.41495 -9.213548,4.76802 c -8.260323,4.27472 -9.611758,4.60307 -13.062557,3.1737 -2.116957,-0.87687 -4.527579,-3.23252 -5.356938,-5.23477 -2.566181,-6.19531 -0.03317,-9.83616 11.090599,-15.94124 9.660151,-5.3018 9.972564,-5.62696 8.922913,-9.28688 -0.598255,-2.08599 -1.511895,-7.44729 -2.030312,-11.914 l -0.942575,-8.12129 -9.431879,-1.59089 c -14.239371,-2.40178 -19.08215,-8.57001 -12.899477,-16.43 3.000535,-3.81456 7.46255,-4.38615 18.122958,-2.32155 l 5.553065,1.07546 2.819463,-11.24155 c 5.236438,-20.87834 21.695548,-57.67239 37.520908,-83.87735 6.53919,-10.828143 6.5535,-10.877625 6.55462,-22.666664 6.1e-4,-6.498157 0.62656,-18.410475 1.39099,-26.471818 3.66659,-38.665964 13.28105,-55.91444322 31.16722,-55.91444322 16.10903,0 31.35088,16.18076422 48.52225,51.51127522 l 7.58509,15.606513 43.50561,0.06015 43.50561,0.06015 7.3793,-15 c 19.84443,-40.33807 39.47559,-58.1045104 56.39394,-51.0372235 7.31316,3.0549156 11.75317,7.7422841 15.73212,16.6085665 5.58045,12.434904 7.52425,24.205877 8.38258,50.76199 l 0.79727,24.666668 7.88807,13.333337 c 15.99166,27.03093 31.39539,61.8839 37.11838,83.98523 1.51759,5.86068 3.03518,9.19775 4.06795,8.94508 0.90603,-0.22166 5.37389,-0.75102 9.92858,-1.17634 7.26879,-0.67877 8.62884,-0.42573 11.12426,2.06969 3.49642,3.49642 3.70981,9.9762 0.43634,13.24967 -1.39042,1.39042 -6.45978,3.131 -12.00522,4.12202 -8.08796,1.4454 -9.6841,2.16829 -10.14206,4.59334 -1.74585,9.24478 -3.51494,21.24605 -3.17524,21.54045 0.21772,0.18869 3.09585,1.68536 6.39585,3.32593 10.87178,5.40482 14.66667,8.9943 14.66667,13.8728 0,2.51358 -0.998,5.26853 -2.33334,6.44111 -4.6703,4.10108 -7.68591,3.93415 -17.04366,-0.94345 -4.97478,-2.59303 -9.12189,-4.55956 -9.2158,-4.37006 -1.98665,4.00864 -11.64857,17.4458 -15.72143,21.86432 -5.59471,6.06955 -20.75487,16.79477 -26.01911,18.40751 -1.65,0.50549 -3,1.44565 -3,2.08925 0,0.6436 4.80957,18.15317 10.68792,38.91015 19.82747,70.01248 41.86804,162.54212 44.79908,188.07331 0.48409,4.21667 1.45211,7.66667 2.15117,7.66667 1.41036,0 20.34029,-18.80818 27.84576,-27.66667 3.76726,-4.44639 5.70362,-5.66667 8.99195,-5.66667 8.70956,0 12.3439,9.28477 6.58393,16.82019 -8.07557,10.56476 -20.72799,23.57598 -30.81301,31.68679 l -11.22741,9.02959 -0.72052,12.23172 c -0.39629,6.72744 -1.74314,15.11423 -2.99299,18.63731 -1.24985,3.52308 -1.91598,6.76208 -1.48028,7.19778 1.09953,1.09953 19.40456,-10.14093 33.99707,-20.87637 55.47235,-40.81002 89.02364,-95.78684 100.93657,-165.39368 3.09048,-18.05756 4.05862,-69.3203 1.80931,-95.80258 -2.37016,-27.90524 -2.30605,-29.43908 1.35445,-32.40317 3.865,-3.1297 8.28411,-3.13367 12.14054,-0.0109 3.8682,3.13228 4.61134,8.37662 6.76777,47.76027 3.67585,67.1332 -5.00985,116.71215 -28.86599,164.77046 -20.88152,42.06594 -52.52214,77.10602 -95.6365,105.91167 -16.52199,11.03871 -48.38089,27.15826 -67.66215,34.23482 -10.20995,3.74724 -44.05377,12.68614 -56.66667,14.96693 -1.69877,0.30719 -3.55084,2.65056 -5.10268,6.4563 -3.65369,8.96034 -12.0138,17.77554 -18.51914,19.52724 -10.09407,2.71806 -19.84411,-3.26985 -26.46901,-16.25572 l -2.63003,-5.15529 h -34.43707 -34.43707 l -2.36651,5.24796 c -4.19074,9.29341 -14.38778,17.47907 -21.66234,17.38942 -1.30688,-0.0161 -4.83551,-1.14618 -7.84139,-2.51129 z M 509.93015,487.3847 c -4.52216,-4.52216 -4.10244,-7.41994 3.86992,-26.71802 12.26334,-29.68493 18.38565,-58.41884 18.46599,-86.66667 0.0807,-28.36915 -4.9561,-47.62889 -25.28014,-96.66667 -12.34158,-29.77773 -15.29288,-39.79252 -15.34265,-52.06302 -0.0752,-18.54636 13.70151,-36.95059 31.85774,-42.55848 10.9809,-3.39166 15.37527,-3.39825 26.02523,-0.039 19.93371,6.28751 34.89369,24.54988 45.70113,55.78957 5.78288,16.71585 5.97526,20.39811 1.2595,24.10752 -7.69821,6.05541 -13.28946,1.65265 -18.50294,-14.56989 -12.60958,-39.23668 -34.95596,-57.05701 -54.75723,-43.66667 -3.92819,2.65639 -7.64453,6.65526 -9.60324,10.33333 -5.4374,10.21035 -2.94441,22.52455 11.06721,54.66667 27.77194,63.70779 32.6773,97.64282 21.85227,151.17282 -4.61052,22.79912 -18.53935,62.00911 -23.67002,66.63168 -4.42396,3.98584 -9.11432,4.0753 -12.94277,0.24686 z M 268.60607,255.39395 c -3.03562,-3.03562 -3.27273,-4.23264 -3.27273,-16.52213 0,-12.73119 -0.1205,-13.27964 -3.08088,-14.02264 -6.16904,-1.54834 -13.89012,-8.47792 -16.2076,-14.54617 -2.05254,-5.37449 -2.06958,-6.32948 -0.19307,-10.82059 3.24253,-7.76047 10.3811,-10.25165 29.37652,-10.25165 16.99097,0 22.54845,1.52222 27.2145,7.45414 3.35132,4.26052 3.70558,9.87139 0.95864,15.18338 -2.49845,4.83147 -10.52685,11.8614 -14.75923,12.92366 -3.18815,0.80018 -3.30888,1.23147 -3.30888,11.8203 0,6.04441 -0.66311,12.89203 -1.47358,15.21694 -2.57309,7.38117 -9.75814,9.06031 -15.25369,3.56476 z m -85.52084,-50.60961 c -6.0852,-2.74639 -11.09406,-11.00307 -12.00002,-19.78104 -2.32019,-22.48045 18.71015,-36.90898 32.50055,-22.29802 10.17785,10.78346 8.92595,32.09787 -2.36785,40.31432 -4.59331,3.34171 -12.85665,4.14593 -18.13268,1.76474 z m 168.12985,-0.63893 c -11.84485,-7.22292 -15.40614,-24.46295 -7.7531,-37.53237 3.91806,-6.69102 8.86861,-9.72415 15.87136,-9.72415 21.94505,0 27.59242,37.30141 7.24073,47.82567 -5.11162,2.64332 -10.41302,2.44687 -15.35899,-0.56915 z"
         id="path2" />
    </g>
  </g>
</svg>
